<?xml version="1.0" encoding="utf-8"?>
<svg id="logo" xmlns="http://www.w3.org/2000/svg" viewBox="0 0 300 300" xmlns:bx="https://boxy-svg.com">
  <defs>
    <bx:export>
      <bx:file format="png" path="aq.png" dpi="300"/>
    </bx:export>
  </defs>
  <g style="" transform="matrix(0.856429, 0, 0, 0.856429, 21.5359, 12.1589)">
    <title>logo</title>
    <g id="grupo_logo" transform="matrix(0.956166, 0, 0, 0.956166, 6.57502, 19.6213)" style="">
      <title>isologo</title>
      <path id="logo_Q" d="M242.74,162.9c9.66-16.17,15.21-35.08,15.21-55.29,0-37.84-19.47-71.13-48.93-90.41-5.91-3.86-12.21-7.16-18.84-9.82-5.11-2.05-10.42-3.72-15.89-4.98-2.66-.61-5.36-1.13-8.1-1.54-2.48-.37-5.56-.66-8.09-.86v215.26c2.73-.2,5.42-.5,8.09-.91,2.74-.41,5.44-.92,8.1-1.53,8.66-1.99,16.92-5.03,24.65-8.96,6.71-3.42,13.02-7.52,18.83-12.22,5.03-4.06,9.68-8.55,13.9-13.44,8.89,7.8,18.42,14.88,28.51,21.15,14.1-.29,27.54-3.28,39.82-8.48-20.71-6.25-40-15.77-57.26-27.97ZM201.59,183.5c-5.3,3.61-11,6.68-17.01,9.13-3.34,1.36-6.77,2.53-10.29,3.49v-98.09c10.68,25.93,26.27,49.33,45.6,69.03-5.32,6.26-11.48,11.8-18.3,16.44ZM229.79,152.95c-23.88-19.97-43.02-45.4-55.5-74.39-3.09-7.17-5.77-14.56-8.01-22.14-.03.05-.06.09-.09.14v-.43c-1.45-4.93-2.71-9.93-3.78-15h0c-1.72-8.12-2.94-16.41-3.63-24.86,2.37.24,5.19.61,7.41,1,2.75.49,5.45,1.1,8.1,1.83.94.26,1.87.53,2.79.81,5.75,1.77,11.25,4.09,16.46,6.91,28.71,15.5,48.22,45.87,48.22,80.79,0,16.49-4.35,31.97-11.97,45.34Z" style=""/>
      <path id="logo_A" d="M141.9,0c-2.73.2-5.42.5-8.09.91-2.74.41-5.44.92-8.1,1.53-8.66,1.99-16.92,5.03-24.65,8.96-6.71,3.42-13.02,7.52-18.83,12.22-5.03,4.06-9.68,8.55-13.9,13.44-8.89-7.8-18.42-14.88-28.51-21.15-14.1.29-27.54,3.28-39.82,8.48,20.71,6.25,40,15.77,57.26,27.97-9.66,16.17-15.21,35.08-15.21,55.29,0,37.84,19.47,71.13,48.93,90.41,5.91,3.86,12.21,7.16,18.84,9.82,5.11,2.05,10.42,3.72,15.89,4.98,2.66.61,5.36,1.13,8.1,1.54,2.48.37,5.56.66,8.09.86v-16.2c-2.5-.24-5.65-.64-8.09-1.07-2.75-.49-5.45-1.1-8.1-1.83-.94-.26-1.87-.53-2.79-.81-5.75-1.77-11.25-4.09-16.46-6.91-28.71-15.5-48.22-45.87-48.22-80.79,0-16.49,4.35-31.97,11.97-45.34,23.88,19.97,43.02,45.4,55.5,74.39,3.09,7.17,5.77,14.56,8.01,22.14.03-.05.06-.09.09-.14v.43c1.45,4.93,2.71,9.93,3.78,15h0c1.72,8.12,2.94,16.42,3.63,24.87.23.02.45.04.68.06V0ZM125.71,117.23c-10.68-25.93-26.27-49.33-45.6-69.03,5.32-6.26,11.48-11.8,18.3-16.44,5.3-3.61,11-6.68,17.01-9.13,3.34-1.36,6.77-2.53,10.29-3.49v98.09Z" style=""/>
    </g>
    <g transform="matrix(1.16222, 0, 0, 1.16222, -65.6531, -75.2118)" style="">
      <title>texto</title>
      <path d="M 43.666 302.203 Q 43.666 298.675 45.094 296.008 Q 46.522 293.341 49.021 291.871 Q 51.52 290.401 54.586 290.401 Q 57.61 290.401 59.836 291.703 Q 62.062 293.005 63.154 294.979 L 63.154 290.779 L 67.018 290.779 L 67.018 313.795 L 63.154 313.795 L 63.154 309.511 Q 62.02 311.527 59.773 312.85 Q 57.526 314.173 54.544 314.173 Q 51.478 314.173 49 312.661 Q 46.522 311.149 45.094 308.419 Q 43.666 305.689 43.666 302.203 Z M 63.154 302.245 Q 63.154 299.641 62.104 297.709 Q 61.054 295.777 59.269 294.748 Q 57.484 293.719 55.342 293.719 Q 53.2 293.719 51.436 294.727 Q 49.672 295.735 48.622 297.667 Q 47.572 299.599 47.572 302.203 Q 47.572 304.849 48.622 306.802 Q 49.672 308.755 51.436 309.784 Q 53.2 310.813 55.342 310.813 Q 57.484 310.813 59.269 309.784 Q 61.054 308.755 62.104 306.802 Q 63.154 304.849 63.154 302.245 Z M 77.284 282.715 L 77.284 313.795 L 73.462 313.795 L 73.462 282.715 Z M 82.368 302.203 Q 82.368 298.675 83.796 296.008 Q 85.224 293.341 87.723 291.871 Q 90.222 290.401 93.288 290.401 Q 96.312 290.401 98.538 291.703 Q 100.764 293.005 101.856 294.979 L 101.856 290.779 L 105.72 290.779 L 105.72 313.795 L 101.856 313.795 L 101.856 309.511 Q 100.722 311.527 98.475 312.85 Q 96.228 314.173 93.246 314.173 Q 90.18 314.173 87.702 312.661 Q 85.224 311.149 83.796 308.419 Q 82.368 305.689 82.368 302.203 Z M 101.856 302.245 Q 101.856 299.641 100.806 297.709 Q 99.756 295.777 97.971 294.748 Q 96.186 293.719 94.044 293.719 Q 91.902 293.719 90.138 294.727 Q 88.374 295.735 87.324 297.667 Q 86.274 299.599 86.274 302.203 Q 86.274 304.849 87.324 306.802 Q 88.374 308.755 90.138 309.784 Q 91.902 310.813 94.044 310.813 Q 96.186 310.813 97.971 309.784 Q 99.756 308.755 100.806 306.802 Q 101.856 304.849 101.856 302.245 Z M 123.39 290.359 Q 127.59 290.359 130.194 292.9 Q 132.798 295.441 132.798 300.229 L 132.798 313.795 L 129.018 313.795 L 129.018 300.775 Q 129.018 297.331 127.296 295.504 Q 125.574 293.677 122.592 293.677 Q 119.568 293.677 117.783 295.567 Q 115.998 297.457 115.998 301.069 L 115.998 313.795 L 112.176 313.795 L 112.176 290.779 L 115.998 290.779 L 115.998 294.055 Q 117.132 292.291 119.085 291.325 Q 121.038 290.359 123.39 290.359 Z" style="text-wrap-mode: nowrap;">
        <title>alan</title>
      </path>
      <path d="M 138.305 302.119 Q 138.305 298.633 139.754 295.945 Q 141.203 293.257 143.702 291.766 Q 146.201 290.275 149.267 290.275 Q 151.955 290.275 154.034 291.367 Q 156.113 292.459 157.247 294.013 L 157.247 290.653 L 162.077 290.653 L 162.077 324.799 L 157.247 324.799 L 157.247 310.435 Q 156.113 311.989 153.971 313.081 Q 151.829 314.173 149.099 314.173 Q 146.117 314.173 143.66 312.64 Q 141.203 311.107 139.754 308.356 Q 138.305 305.605 138.305 302.119 Z M 157.247 302.203 Q 157.247 299.809 156.26 298.045 Q 155.273 296.281 153.677 295.357 Q 152.081 294.433 150.233 294.433 Q 148.385 294.433 146.789 295.336 Q 145.193 296.239 144.206 297.982 Q 143.219 299.725 143.219 302.119 Q 143.219 304.513 144.206 306.319 Q 145.193 308.125 146.81 309.07 Q 148.427 310.015 150.233 310.015 Q 152.081 310.015 153.677 309.091 Q 155.273 308.167 156.26 306.382 Q 157.247 304.597 157.247 302.203 Z M 189.312 290.653 L 189.312 313.795 L 184.524 313.795 L 184.524 311.065 Q 183.39 312.493 181.563 313.312 Q 179.736 314.131 177.678 314.131 Q 174.948 314.131 172.785 312.997 Q 170.622 311.863 169.383 309.637 Q 168.144 307.411 168.144 304.261 L 168.144 290.653 L 172.89 290.653 L 172.89 303.547 Q 172.89 306.655 174.444 308.314 Q 175.998 309.973 178.686 309.973 Q 181.374 309.973 182.949 308.314 Q 184.524 306.655 184.524 303.547 L 184.524 290.653 Z M 198.041 287.587 Q 196.739 287.587 195.857 286.705 Q 194.975 285.823 194.975 284.521 Q 194.975 283.219 195.857 282.337 Q 196.739 281.455 198.041 281.455 Q 199.301 281.455 200.183 282.337 Q 201.065 283.219 201.065 284.521 Q 201.065 285.823 200.183 286.705 Q 199.301 287.587 198.041 287.587 Z M 200.393 290.653 L 200.393 313.795 L 195.605 313.795 L 195.605 290.653 Z M 218.368 290.275 Q 221.098 290.275 223.261 291.409 Q 225.424 292.543 226.642 294.769 Q 227.86 296.995 227.86 300.145 L 227.86 313.795 L 223.114 313.795 L 223.114 300.859 Q 223.114 297.751 221.56 296.092 Q 220.006 294.433 217.318 294.433 Q 214.63 294.433 213.055 296.092 Q 211.48 297.751 211.48 300.859 L 211.48 313.795 L 206.692 313.795 L 206.692 290.653 L 211.48 290.653 L 211.48 293.299 Q 212.656 291.871 214.483 291.073 Q 216.31 290.275 218.368 290.275 Z M 239.516 294.559 L 239.516 307.369 Q 239.516 308.671 240.125 309.238 Q 240.734 309.805 242.204 309.805 L 245.144 309.805 L 245.144 313.795 L 241.364 313.795 Q 238.13 313.795 236.408 312.283 Q 234.686 310.771 234.686 307.369 L 234.686 294.559 L 231.956 294.559 L 231.956 290.653 L 234.686 290.653 L 234.686 284.899 L 239.516 284.899 L 239.516 290.653 L 245.144 290.653 L 245.144 294.559 Z M 247.951 302.119 Q 247.951 298.633 249.4 295.945 Q 250.849 293.257 253.348 291.766 Q 255.847 290.275 258.871 290.275 Q 261.601 290.275 263.638 291.346 Q 265.675 292.417 266.893 294.013 L 266.893 290.653 L 271.723 290.653 L 271.723 313.795 L 266.893 313.795 L 266.893 310.351 Q 265.675 311.989 263.575 313.081 Q 261.475 314.173 258.787 314.173 Q 255.805 314.173 253.327 312.64 Q 250.849 311.107 249.4 308.356 Q 247.951 305.605 247.951 302.119 Z M 266.893 302.203 Q 266.893 299.809 265.906 298.045 Q 264.919 296.281 263.323 295.357 Q 261.727 294.433 259.879 294.433 Q 258.031 294.433 256.435 295.336 Q 254.839 296.239 253.852 297.982 Q 252.865 299.725 252.865 302.119 Q 252.865 304.513 253.852 306.319 Q 254.839 308.125 256.456 309.07 Q 258.073 310.015 259.879 310.015 Q 261.727 310.015 263.323 309.091 Q 264.919 308.167 265.906 306.382 Q 266.893 304.597 266.893 302.203 Z M 289.688 290.275 Q 292.418 290.275 294.581 291.409 Q 296.744 292.543 297.962 294.769 Q 299.18 296.995 299.18 300.145 L 299.18 313.795 L 294.434 313.795 L 294.434 300.859 Q 294.434 297.751 292.88 296.092 Q 291.326 294.433 288.638 294.433 Q 285.95 294.433 284.375 296.092 Q 282.8 297.751 282.8 300.859 L 282.8 313.795 L 278.012 313.795 L 278.012 290.653 L 282.8 290.653 L 282.8 293.299 Q 283.976 291.871 285.803 291.073 Q 287.63 290.275 289.688 290.275 Z M 303.667 302.119 Q 303.667 298.633 305.116 295.945 Q 306.565 293.257 309.064 291.766 Q 311.563 290.275 314.587 290.275 Q 317.317 290.275 319.354 291.346 Q 321.391 292.417 322.609 294.013 L 322.609 290.653 L 327.439 290.653 L 327.439 313.795 L 322.609 313.795 L 322.609 310.351 Q 321.391 311.989 319.291 313.081 Q 317.191 314.173 314.503 314.173 Q 311.521 314.173 309.043 312.64 Q 306.565 311.107 305.116 308.356 Q 303.667 305.605 303.667 302.119 Z M 322.609 302.203 Q 322.609 299.809 321.622 298.045 Q 320.635 296.281 319.039 295.357 Q 317.443 294.433 315.595 294.433 Q 313.747 294.433 312.151 295.336 Q 310.555 296.239 309.568 297.982 Q 308.581 299.725 308.581 302.119 Q 308.581 304.513 309.568 306.319 Q 310.555 308.125 312.172 309.07 Q 313.789 310.015 315.595 310.015 Q 317.443 310.015 319.039 309.091 Q 320.635 308.167 321.622 306.382 Q 322.609 304.597 322.609 302.203 Z" style="text-wrap-mode: nowrap;">
        <title>quintana</title>
      </path>
    </g>
  </g>
</svg>